# xmcd
#
# Track frame offsets:
#	150
#	16884
#	29636
#	46117
#	62323
#	81885
#	100287
#	114946
#	140416
#	160150
#	176119
#	189273
#	203896
#
# Disc length: 2914 seconds
#
# Revision: 1
# Processed by: cddbd v1.5.2PL0 Copyright (c) Steve Scherf et al.
# Submitted via: audiograbber 1.83.01
#
DISCID=a20b600d
DTITLE=Brooks and Dunn - Hillbilly Deluxe
DYEAR=2005
DGENRE=Country
TTITLE0=Play Something Country
TTITLE1=She's About As Lonely As I'm Going To Let Her Get
TTITLE2=My Heart's Not A Hotel
TTITLE3=Whiskey Do My Talkin'
TTITLE4=Hillbilly Deluxe
TTITLE5=One More Roll Of The Dice
TTITLE6=Just Another Neon Night
TTITLE7=Believe
TTITLE8=Building Bridges
TTITLE9=Her West Was Wilder
TTITLE10=I May Never Get Over You
TTITLE11=She Likes To Get Out Of Town
TTITLE12=Again
EXTD=
EXTT0=
EXTT1=
EXTT2=
EXTT3=
EXTT4=
EXTT5=
EXTT6=
EXTT7=
EXTT8=
EXTT9=
EXTT10=
EXTT11=
EXTT12=
PLAYORDER=
